<svg xmlns="http://www.w3.org/2000/svg" height="48" viewBox="0 -960 960 960" width="48"><path d="M485.069-383Q534-383 571-415.123q37-32.124 37-78.877 0-39-24.124-66.5T523-588q-31 0-52.5 19.5T449-520.889Q449-509 454.5-497t14.5 22l19-15q-8-5.5-12.5-13.55T471-520q0-16 13-30.5t39-14.5q24 0 43.5 19.5T586-493q0 35.257-27.611 61.628Q530.778-405 485.519-405q-48.715 0-84.617-39T365-541.655Q365-571 377-599t34-50l-17-16q-25 25-38.5 55.784-13.5 30.783-13.5 65.482 0 66.41 40.645 113.572Q423.29-383 485.069-383ZM286-126v-147.071Q228-326 197-390.027q-31-64.028-31-130.612 0-131.778 91.292-223.069Q348.583-835 479.818-835 585-835 671.412-769.726 757.824-704.453 784-603l38 156q4 17-5.409 29-9.409 12-26.591 12h-75v133q0 27.75-20.125 47.375T648-206h-93v80h-35v-115h128q14 0 23-9t9-23v-168h108l-38-155q-24-91-99.5-147.5T480-800q-116.3 0-197.65 81.587Q201-636.827 201-521.129q0 60.865 24.846 114.5Q250.691-352.994 295-313l26 25v162h-35Zm208-337Z"/></svg>