<svg xmlns="http://www.w3.org/2000/svg" height="48" viewBox="0 96 960 960" width="48"><path d="M480.174 940q-74.814 0-141.712-28.411-66.899-28.412-116.234-77.688-49.336-49.277-77.782-116.095Q116 650.988 116 576.174q0-74.814 28.411-141.712 28.412-66.899 77.688-116.234 49.277-49.336 116.095-77.782Q405.012 212 479.826 212q74.814 0 141.712 28.411 66.899 28.412 116.234 77.688 49.336 49.277 77.782 116.095Q844 501.012 844 575.826q0 74.814-28.411 141.712-28.412 66.899-77.688 116.234-49.277 49.336-116.095 77.782Q554.988 940 480.174 940ZM362 884l74-171q-32.175-12.385-56.087-35.192Q356 655 344 622l-174 70q27.193 67.6 76.597 117.3Q296 859 362 884Zm-18-354q8-34 32.5-56.5T434 440l-70-174q-71 27-120 76.5T170 460l174 70Zm135.647 155Q525 685 557 653.353q32-31.647 32-77T557.353 499q-31.647-32-77-32T403 498.647q-32 31.647-32 77T402.647 653q31.647 32 77 32ZM599 884q64-26 113.5-75T788 694l-171-74q-11 33-34 56.5T527 712l72 172Zm17-356 172-71q-26.202-64.994-75.101-114.497T599 268l-71 173q28.901 12.171 52.451 34.086Q604 497 616 528Z"/></svg>